# xmcd CD database file
#
# Track frame offsets:
#	150
#	17518
#	34891
#	53827
#	72763
#	88115
#	103422
#	120907
#	138411
#	153648
#	168885
#	183021
#	197142
#	218445
#	239725
#	260444
#	281163
#	302481
#	323652
#
# Disc length: 4334 seconds
#
# Revision: 0
# Processed by: cddbd v1.5.2PL0 Copyright (c) Steve Scherf et al.
# Submitted via: CDex 1.79
#
DISCID=0710ec13
DTITLE=Hal Leonard - Slo`Jazz - Vol 106
DYEAR=2000
DGENRE=Jazz
TTITLE0=Don`t blame me
TTITLE1=Don`t blame me - Stereo
TTITLE2=Dreamsville
TTITLE3=Dreamsville - Stereo
TTITLE4=Goodbye
TTITLE5=Goodbye - Stereo
TTITLE6=I guess I`ll hang m tears out to dry
TTITLE7=I guess I`ll hang m tears out to dry - Stereo
TTITLE8=I`ll be around
TTITLE9=I`ll be around - Stereo
TTITLE10=I`m old fashioned
TTITLE11=I`m old fashioned - Stereo
TTITLE12=Moonglow
TTITLE13=Moonglow - Stereo
TTITLE14=My ship
TTITLE15=My ship - Stereo
TTITLE16=Spring can really hang you up the most
TTITLE17=Spring can really hang you up the most - Stereo
TTITLE18=Bb tuning note
EXTD=YEAR: 2000
EXTT0=
EXTT1=
EXTT2=
EXTT3=
EXTT4=
EXTT5=
EXTT6=
EXTT7=
EXTT8=
EXTT9=
EXTT10=
EXTT11=
EXTT12=
EXTT13=
EXTT14=
EXTT15=
EXTT16=
EXTT17=
EXTT18=
PLAYORDER=
